# xmcd CD database file
#
# Track frame offsets:
#	150
#	16557
#	35020
#	54797
#	71107
#	91810
#	106737
#	122765
#	142775
#	158912
#	168717
#	189882
#	206837
#	226540
#
# Disc length: 3312 seconds
#
# Revision: 0
# Processed by: cddbd v1.4PL0 Copyright (c) Steve Scherf et al.
# Submitted via: CDex 1.50Beta6
#
DISCID=a70cee0e
DTITLE=Jared Wagner - Starting Over
DYEAR=1999
DGENRE=Country
TTITLE0=Don't Be Stupid
TTITLE1=Everything I Do
TTITLE2=How Do I Live
TTITLE3=Love Get's Me Everytime
TTITLE4=My Heart Will Go On
TTITLE5=Your Still The One
TTITLE6=Tearing Up My Heart
TTITLE7=I Will Always Love You
TTITLE8=Honey I'm Home
TTITLE9=Hound Dog
TTITLE10=To Love You More
TTITLE11=From This Moment
TTITLE12=Rock This Country
TTITLE13=I Will Remember You
EXTD=YEAR: 1999
EXTT0=
EXTT1=
EXTT2=
EXTT3=
EXTT4=
EXTT5=
EXTT6=
EXTT7=
EXTT8=
EXTT9=
EXTT10=
EXTT11=
EXTT12=
EXTT13=
PLAYORDER=
